<svg xmlns="http://www.w3.org/2000/svg" width="30.697" height="30.697" viewBox="0 0 30.697 30.697">
  <g id="Iconly_Bold_Call" data-name="Iconly/Bold/Call" transform="translate(5.5 4.5)">
    <g id="Call" transform="translate(-5.5 -4.5)">
      <path id="Subtraction_1" data-name="Subtraction 1" d="M15.349,30.7A15.348,15.348,0,0,1,4.5,4.5,15.348,15.348,0,1,1,26.2,26.2,15.248,15.248,0,0,1,15.349,30.7ZM10.725,6.32c-.646,0-1.4.482-2.533,1.611a1.214,1.214,0,0,1-.088.091,2.7,2.7,0,0,0-.881,2.06A6.586,6.586,0,0,0,8.237,13.25a25.244,25.244,0,0,0,4.118,5.1c3.4,3.4,6.177,5.129,8.24,5.129a2.7,2.7,0,0,0,2.08-.88,1.3,1.3,0,0,1,.094-.091c1.135-1.135,1.616-1.9,1.608-2.547-.009-.726-.611-1.3-1.522-2.164l-.007-.007c-.23-.219-.49-.467-.759-.735a2.065,2.065,0,0,0-1.466-.731,3.32,3.32,0,0,0-1.086.251l-.058.02a3.73,3.73,0,0,1-1.268.271,4.182,4.182,0,0,1-2.834-1.538c-2-2-1.6-3.148-1.25-4.159a2.017,2.017,0,0,0-.481-2.554c-.275-.275-.527-.54-.75-.775C12.028,6.922,11.456,6.32,10.725,6.32Z" fill="#2d2d2d"/>
    </g>
  </g>
</svg>
