<svg xmlns="http://www.w3.org/2000/svg" width="29.953" height="30" viewBox="0 0 29.953 30">
  <path id="Combined-Shape" d="M13.981.054a1.1,1.1,0,0,1,0,2.209H8.474C4.668,2.263,2.209,4.87,2.209,8.9V21.15c0,4.034,2.458,6.641,6.264,6.641h13c3.806,0,6.266-2.607,6.266-6.641V15.217a1.1,1.1,0,0,1,2.209,0V21.15c0,5.293-3.407,8.85-8.475,8.85h-13C3.405,30,0,26.443,0,21.15V8.9C0,3.611,3.405.054,8.474.054ZM26.809,1.348,28.6,3.14a4.615,4.615,0,0,1,0,6.528l-11.06,11.06A4.275,4.275,0,0,1,14.5,21.987H8.983a1.107,1.107,0,0,1-1.1-1.133l.138-5.566a4.289,4.289,0,0,1,1.258-2.934h0L20.282,1.348A4.624,4.624,0,0,1,26.809,1.348Zm-7.433,4.03-8.539,8.54a2.081,2.081,0,0,0-.611,1.426l-.11,4.435H14.5a2.076,2.076,0,0,0,1.48-.613l8.59-8.593Zm2.468-2.467-.907.9,5.195,5.2.908-.906a2.407,2.407,0,0,0,0-3.4L25.247,2.911A2.415,2.415,0,0,0,21.844,2.911Z" transform="translate(0 0)" fill-rule="evenodd"/>
</svg>
