<svg xmlns="http://www.w3.org/2000/svg" width="14.638" height="15.861" viewBox="0 0 14.638 15.861">
  <g id="Group_215" data-name="Group 215" transform="translate(-758 -377.139)">
    <g id="Ellipse_62" data-name="Ellipse 62" transform="translate(758 383)" fill="none" stroke="#909090" stroke-width="1.5">
      <circle cx="5" cy="5" r="5" stroke="none"/>
      <circle cx="5" cy="5" r="4.25" fill="none"/>
    </g>
    <g id="Path_440" data-name="Path 440" transform="matrix(0.966, -0.259, 0.259, 0.966, 763.917, 386.685)" fill="#909090">
      <path d="M 5.02734375 0.5000050067901611 L 1.171873807907104 0.5000050067901611 C 0.4427937567234039 0.5000050067901611 -0.06640625 0.014894999563694 -0.06640625 -0.6796849966049194 C -0.06640625 -1.017200589179993 0.03878302499651909 -1.288650035858154 0.2850794792175293 -1.585996985435486 L 2.564594268798828 -4.474605083465576 L 1.08984375 -4.474605083465576 C 0.3772237598896027 -4.474605083465576 -0.1015662476420403 -4.93926477432251 -0.1015662476420403 -5.630855083465576 C -0.1015662476420403 -6.318934917449951 0.3772237598896027 -6.781245231628418 1.08984375 -6.781245231628418 L 4.74609375 -6.781245231628418 C 5.520023822784424 -6.781245231628418 6.060543537139893 -6.267224788665771 6.060543537139893 -5.531245231628418 C 6.060543537139893 -5.170229911804199 5.946762561798096 -4.871556758880615 5.680243968963623 -4.533386707305908 L 3.601980924606323 -1.812494993209839 L 5.02734375 -1.812494993209839 C 5.739963531494141 -1.812494993209839 6.218753814697266 -1.347834944725037 6.218753814697266 -0.6562449932098389 C 6.218753814697266 0.03534499928355217 5.739963531494141 0.5000050067901611 5.02734375 0.5000050067901611 Z" stroke="none"/>
      <path d="M 5.02734375 4.999999873689376e-06 C 5.460933685302734 4.999999873689376e-06 5.718753814697266 -0.2402350008487701 5.718753814697266 -0.6562449932098389 C 5.718753814697266 -1.072265028953552 5.460933685302734 -1.312494993209839 5.02734375 -1.312494993209839 L 2.613283634185791 -1.312494993209839 L 2.613283634185791 -1.341794967651367 L 5.285153865814209 -4.839845180511475 C 5.484373569488525 -5.091794967651367 5.560543537139893 -5.285154819488525 5.560543537139893 -5.531245231628418 C 5.560543537139893 -5.994144916534424 5.250003814697266 -6.281245231628418 4.74609375 -6.281245231628418 L 1.08984375 -6.281245231628418 C 0.6503937244415283 -6.281245231628418 0.3984337449073792 -6.041015148162842 0.3984337449073792 -5.630855083465576 C 0.3984337449073792 -5.214845180511475 0.6562537550926208 -4.974605083465576 1.08984375 -4.974605083465576 L 3.568363666534424 -4.974605083465576 L 3.568363666534424 -4.939455032348633 L 0.6738237738609314 -1.271484971046448 C 0.4980437457561493 -1.060544967651367 0.43359375 -0.9023450016975403 0.43359375 -0.6796849966049194 C 0.43359375 -0.2695350050926208 0.7207037210464478 4.999999873689376e-06 1.171873807907104 4.999999873689376e-06 L 5.02734375 4.999999873689376e-06 M 5.02734375 1.000005006790161 L 1.171873807907104 1.000005006790161 C 0.1646437495946884 1.000005006790161 -0.56640625 0.2935949862003326 -0.56640625 -0.6796849966049194 C -0.56640625 -1.135630369186401 -0.4235806465148926 -1.512734770774841 -0.1036253571510315 -1.900546193122864 L 1.533096313476562 -3.974605083465576 L 1.08984375 -3.974605083465576 C 0.1097737476229668 -3.974605083465576 -0.6015662550926208 -4.671154975891113 -0.6015662550926208 -5.630855083465576 C -0.6015662550926208 -6.602574825286865 0.09396374970674515 -7.281245231628418 1.08984375 -7.281245231628418 L 4.74609375 -7.281245231628418 C 5.797453880310059 -7.281245231628418 6.560543537139893 -6.545265197753906 6.560543537139893 -5.531245231628418 C 6.560543537139893 -5.05620813369751 6.410816192626953 -4.653550624847412 6.075219631195068 -4.226778030395508 L 4.613057613372803 -2.312494993209839 L 5.02734375 -2.312494993209839 C 6.007413864135742 -2.312494993209839 6.718753814697266 -1.615944981575012 6.718753814697266 -0.6562449932098389 C 6.718753814697266 0.3034549951553345 6.007413864135742 1.000005006790161 5.02734375 1.000005006790161 Z" stroke="none" fill="#f4f4f4"/>
    </g>
    <g id="Path_441" data-name="Path 441" transform="translate(768.355 384.42)" fill="#909090">
      <path d="M 2.907927989959717 -2.375970840454102 L 0.8177481293678284 -2.375970840454102 C 0.2961080968379974 -2.375970840454102 -0.08250189572572708 -2.741220951080322 -0.08250189572572708 -3.244450807571411 C -0.08250189572572708 -3.481175184249878 -0.008023596368730068 -3.677360057830811 0.1587984710931778 -3.879555225372314 L 1.100494265556335 -5.072880744934082 L 0.7732681035995483 -5.072880744934082 C 0.2581781148910522 -5.072880744934082 -0.1015618965029716 -5.424790859222412 -0.1015618965029716 -5.928650856018066 C -0.1015618965029716 -6.43065071105957 0.2581781148910522 -6.781250953674316 0.7732681035995483 -6.781250953674316 L 2.75544810295105 -6.781250953674316 C 3.301017999649048 -6.781250953674316 3.696988105773926 -6.399971008300781 3.696988105773926 -5.874650955200195 C 3.696988105773926 -5.627056121826172 3.6184983253479 -5.416688442230225 3.442568778991699 -5.19307804107666 L 2.598125457763672 -4.087521076202393 L 2.907927989959717 -4.087521076202393 C 3.423018217086792 -4.087521076202393 3.782757997512817 -3.735610961914062 3.782757997512817 -3.231750965118408 C 3.782757997512817 -2.727880954742432 3.423018217086792 -2.375970840454102 2.907927989959717 -2.375970840454102 Z" stroke="none"/>
      <path d="M 2.907927989959717 -2.875970840454102 C 3.142988204956055 -2.875970840454102 3.282757997512817 -3.006210803985596 3.282757997512817 -3.231750965118408 C 3.282757997512817 -3.457280874252319 3.142988204956055 -3.587520837783813 2.907927989959717 -3.587520837783813 L 1.599178075790405 -3.587520837783813 L 1.599178075790405 -3.603400945663452 L 3.047688007354736 -5.499810695648193 C 3.15569806098938 -5.636410713195801 3.196988105773926 -5.741230964660645 3.196988105773926 -5.874650955200195 C 3.196988105773926 -6.125600814819336 3.028638124465942 -6.281250953674316 2.75544810295105 -6.281250953674316 L 0.7732681035995483 -6.281250953674316 C 0.5350281000137329 -6.281250953674316 0.3984380960464478 -6.151010990142822 0.3984380960464478 -5.928650856018066 C 0.3984380960464478 -5.703110694885254 0.5382081270217896 -5.572880744934082 0.7732681035995483 -5.572880744934082 L 2.116958141326904 -5.572880744934082 L 2.116958141326904 -5.553821086883545 L 0.5477381348609924 -3.565290927886963 C 0.4524381160736084 -3.450930833816528 0.4174981117248535 -3.365160942077637 0.4174981117248535 -3.244450807571411 C 0.4174981117248535 -3.022090911865234 0.5731481313705444 -2.875970840454102 0.8177481293678284 -2.875970840454102 L 2.907927989959717 -2.875970840454102 M 2.907927989959717 -1.875970840454102 L 0.8177481293678284 -1.875970840454102 C 0.01947810687124729 -1.875970840454102 -0.5825018882751465 -2.464290857315063 -0.5825018882751465 -3.244450807571411 C -0.5825018882751465 -3.593891382217407 -0.4673436880111694 -3.904428720474243 -0.2305381447076797 -4.193304061889648 L 0.1700013428926468 -4.700871467590332 C -0.2946902811527252 -4.913504123687744 -0.6015619039535522 -5.37174654006958 -0.6015619039535522 -5.928650856018066 C -0.6015619039535522 -6.699760913848877 -0.01051189377903938 -7.281250953674316 0.7732681035995483 -7.281250953674316 L 2.75544810295105 -7.281250953674316 C 3.577258110046387 -7.281250953674316 4.196988105773926 -6.676540851593018 4.196988105773926 -5.874650955200195 C 4.196988105773926 -5.402228355407715 3.993813514709473 -5.085510730743408 3.837882995605469 -4.886912822723389 L 3.511377334594727 -4.459446907043457 C 3.976002931594849 -4.246790409088135 4.282758235931396 -3.788608074188232 4.282758235931396 -3.231750965118408 C 4.282758235931396 -2.458830833435059 3.691708087921143 -1.875970840454102 2.907927989959717 -1.875970840454102 Z" stroke="none" fill="#f4f4f4"/>
    </g>
  </g>
</svg>
