<svg xmlns="http://www.w3.org/2000/svg" width="22" height="22" viewBox="0 0 22 22">
  <g id="Group_213" data-name="Group 213" transform="translate(-55 -9.5)">
    <path id="Path_394" data-name="Path 394" d="M19.591,15.045A4.545,4.545,0,1,1,15.045,10.5,4.545,4.545,0,0,1,19.591,15.045Z" transform="translate(50.955 5.455)" fill="none" stroke="#909090" stroke-linecap="round" stroke-linejoin="round" stroke-width="2"/>
    <path id="Path_395" data-name="Path 395" d="M18,1.5V3.318" transform="translate(48 9)" fill="none" stroke="#909090" stroke-linecap="round" stroke-linejoin="round" stroke-width="2"/>
    <path id="Path_396" data-name="Path 396" d="M18,31.5v1.818" transform="translate(48 -2.818)" fill="none" stroke="#909090" stroke-linecap="round" stroke-linejoin="round" stroke-width="2"/>
    <path id="Path_397" data-name="Path 397" d="M6.33,6.33,7.621,7.621" transform="translate(52.597 7.098)" fill="none" stroke="#909090" stroke-linecap="round" stroke-linejoin="round" stroke-width="2"/>
    <path id="Path_398" data-name="Path 398" d="M27.54,27.54l1.291,1.291" transform="translate(44.242 -1.258)" fill="none" stroke="#909090" stroke-linecap="round" stroke-linejoin="round" stroke-width="2"/>
    <path id="Path_399" data-name="Path 399" d="M1.5,18H3.318" transform="translate(54.5 2.5)" fill="none" stroke="#909090" stroke-linecap="round" stroke-linejoin="round" stroke-width="2"/>
    <path id="Path_400" data-name="Path 400" d="M31.5,18h1.818" transform="translate(42.682 2.5)" fill="none" stroke="#909090" stroke-linecap="round" stroke-linejoin="round" stroke-width="2"/>
    <path id="Path_401" data-name="Path 401" d="M6.33,28.831,7.621,27.54" transform="translate(52.597 -1.258)" fill="none" stroke="#909090" stroke-linecap="round" stroke-linejoin="round" stroke-width="2"/>
    <path id="Path_402" data-name="Path 402" d="M27.54,7.621,28.831,6.33" transform="translate(44.242 7.098)" fill="none" stroke="#909090" stroke-linecap="round" stroke-linejoin="round" stroke-width="2"/>
  </g>
</svg>
